<?xml version="1.0" encoding="UTF-8" standalone="no"?>
<svg width="168px" height="195px" viewBox="0 0 168 195" version="1.1" xmlns="http://www.w3.org/2000/svg" xmlns:xlink="http://www.w3.org/1999/xlink" xmlns:sketch="http://www.bohemiancoding.com/sketch/ns">
    <title>Slice 1</title>
    <description>Created with Sketch (http://www.bohemiancoding.com/sketch)</description>
    <defs></defs>
    <g id="Page-1" stroke="none" stroke-width="1" fill="none" fill-rule="evenodd" sketch:type="MSPage">
        <path d="M6.59375,111.996097 C22.0835714,82.1056317 71.6995266,23.3865935 92.4335938,-5.20703125 C97.5856412,-12.3120377 109.96875,-5.20703126 109.96875,-5.20703126 C109.96875,-5.20703126 223.717803,110.039069 228.582027,116.375003 C233.446251,122.710937 226.309809,139.548009 220.949089,139.35131 L14.8515625,131.789062 C14.8515625,131.789062 1.19454299,122.414863 6.59375,111.996097 Z M36.2518251,105.389452 C47.5486458,83.5965309 83.733863,40.7849069 98.855344,19.937503 C102.612763,14.7572944 111.64384,19.937503 111.64384,19.937503 C111.64384,19.937503 194.601714,103.962597 198.149222,108.58208 C201.696731,113.201564 196.49208,125.477351 192.582474,125.333939 L42.2742978,119.820359 C42.2742978,119.820359 32.3141506,112.985698 36.2518251,105.389452 Z" id="Path-1" stroke="#979797" fill="#D8D8D8" sketch:type="MSShapeGroup" transform="translate(117.500000, 65.500000) rotate(-310.000000) translate(-117.500000, -65.500000) "></path>
    </g>
</svg>